<svg xmlns="http://www.w3.org/2000/svg" version="1.1" viewBox="-5.0 -10.0 110.0 135.0">
 <path d="m50.602 36.559-1.6797-1.6797h-5.9219l8.0391 8.0508h5.9219l-0.011719-0.007813h0.011719z"/>
 <path d="m71.602 12.34-4.9023 1.1797-0.007813 0.011719-1.9102 3.1172-4.0117 6.5703h0.011719-0.011719l4.6094-1.1094 1.1523-0.28125 5.918-9.6875z"/>
 <path d="m61.602 42.922v0.007813h4.4375v-0.007813l-8.0391-8.0312-0.011719-0.011719h-4.4297l1.3398 1.3516z"/>
 <path d="m35.852 41.461-1.582-1.5898v3.0586h3.0508v-0.007813z"/>
 <path d="m38.789 20.281h-0.007812l-5.9102 9.6992-0.011719 0.007812 4.3203-1.0469 5.9219-9.7031-1.6328 0.39062z"/>
 <path d="m81.059 38.309-3.418-3.4297h-4.4492l8.0391 8.0508h4.4414v-0.007813z"/>
 <path d="m31.039 22.16-5.7773 1.3984 4.7695 4.7695 4.25-6.957-0.011719 0.007812v-0.007812z"/>
 <path d="m84.34 11.262-4.4805 7.3516 2.9883-0.73047 2.5-0.60937c0.10156-0.03125 0.17969-0.089844 0.23828-0.17188 0.078124-0.10156 0.10937-0.23047 0.078124-0.35937l-0.42969-1.7812-0.89844-3.7109z"/>
 <path d="m70.672 42.93h5.9297l-0.011718-0.007813h0.011718l-8.043-8.0312-0.007813-0.011719h-5.9102v0.011719l3.8789 3.8711z"/>
 <path d="m46.41 42.93-0.011718-0.007813-4.0195-4.0117-4.0195-4.0312h-4.0898v0.35938l2.2617 2.25 5.4297 5.4414z"/>
 <path d="m87.82 34.879h-5.5391l6.0898 6.0781v-5.5391c0-0.30078-0.25-0.55078-0.55078-0.55078z"/>
 <path d="m47.609 18.148-2.2305 3.6523-3.6992 6.0391h0.011718v0.011718l1.9297-0.47266 3.8281-0.91797 5.9102-9.6992z"/>
 <path d="m59.52 15.27-1.6484 0.39062v0.011719h-0.011719l-5.1875 8.5-0.72266 1.1875 1.6914-0.41016 2.6289-0.62891 5.9102-9.6992z"/>
 <path d="m78.559 10.66-1.6094 0.37891-5.9102 9.6992 0.90234-0.21875 3.4102-0.82031 5.918-9.6992z"/>
 <path d="m11.641 89.449c0 0.30859 0.23828 0.55078 0.53906 0.55078h75.641c0.28906 0 0.53906-0.23828 0.53906-0.55078v-43.238h-76.719zm5.5781-18.277h12.98v-15.551h-12.98v-3.2812h65.551v3.2812h-12.969v15.551h12.969v3.2695h-65.551zm0 9.418h65.551v3.2812h-65.551z"/>
 <path d="m33.48 55.621h33.051v15.539h-33.051z"/>
 <path d="m12.07 23.57c-0.23828 0-0.42969 0.19922-0.42969 0.44141v18.922h19.359v-9.0117l-10.371-10.352zm3.9414 18.051c-1.5 0-2.6992-1.1992-2.6992-2.6992s1.1992-2.6992 2.6992-2.6992 2.6992 1.2109 2.6992 2.6992-1.2109 2.6992-2.6992 2.6992zm0-11.492c-1.5 0-2.6992-1.2109-2.6992-2.6992 0-1.4883 1.1992-2.6992 2.6992-2.6992s2.6992 1.2109 2.6992 2.6992c0 1.4883-1.2109 2.6992-2.6992 2.6992zm10.559 6.0898c1.4883 0 2.6992 1.2109 2.6992 2.6992s-1.2109 2.6992-2.6992 2.6992c-1.4883 0-2.6992-1.1992-2.6992-2.6992s1.2109-2.6992 2.6992-2.6992z"/>
<text x="0.0" y="117.5" font-size="5.0" font-weight="bold" font-family="Arbeit Regular, Helvetica, Arial-Unicode, Arial, Sans-serif" fill="#000000">Created by Kosong Tujuh</text><text x="0.0" y="122.5" font-size="5.0" font-weight="bold" font-family="Arbeit Regular, Helvetica, Arial-Unicode, Arial, Sans-serif" fill="#000000">from Noun Project</text></svg>